<?xml version="1.0" standalone="no"?>
<!DOCTYPE svg PUBLIC "-//W3C//DTD SVG 20010904//EN"
 "http://www.w3.org/TR/2001/REC-SVG-20010904/DTD/svg10.dtd">
<svg version="1.0" xmlns="http://www.w3.org/2000/svg"
 width="728.000000pt" height="728.000000pt" viewBox="0 0 728.000000 728.000000"
 preserveAspectRatio="xMidYMid meet">
<metadata>
Created by potrace 1.11, written by Peter Selinger 2001-2013
</metadata>
<g transform="translate(0.000000,728.000000) scale(0.100000,-0.100000)"
fill="#000000" stroke="none">
<path d="M2899 6180 c-409 -442 -761 -826 -783 -854 -91 -121 -136 -251 -143
-417 -7 -146 11 -238 72 -365 53 -111 85 -151 277 -355 140 -149 194 -196 135
-117 -137 183 -148 452 -26 654 35 57 1202 1327 1216 1323 7 -3 1027 -1104
1153 -1245 54 -61 104 -156 125 -239 19 -72 21 -213 4 -281 -16 -64 -63 -169
-95 -211 -14 -19 -24 -36 -21 -39 7 -7 302 310 355 381 56 76 94 151 124 245
30 98 33 307 5 410 -23 85 -87 213 -135 272 -33 39 -1318 1430 -1467 1587
l-51 53 -745 -802z"/>
<path d="M3303 4728 c-424 -455 -421 -452 -452 -517 -22 -47 -26 -70 -26 -146
0 -76 4 -99 26 -146 29 -62 38 -71 469 -532 293 -313 306 -325 324 -309 10 9
179 188 374 396 409 437 416 447 416 591 0 144 -6 153 -430 609 -202 218 -371
396 -375 396 -4 0 -151 -154 -326 -342z"/>
<path d="M1295 3391 c-255 -42 -464 -197 -570 -424 -30 -63 -690 -2165 -683
-2173 3 -2 524 -123 1473 -340 132 -31 337 -78 455 -106 257 -60 371 -70 500
-44 247 50 447 210 550 440 24 54 86 243 141 434 20 70 12 83 -15 22 -64 -145
-218 -271 -387 -316 -139 -37 -155 -34 -1074 175 -461 106 -841 193 -842 195
-2 2 48 167 111 367 63 200 178 569 256 819 89 283 156 481 178 525 48 92 145
189 237 237 101 52 175 71 282 72 51 1 89 4 85 8 -4 3 -108 30 -232 58 -235
54 -359 68 -465 51z"/>
<path d="M5725 3390 c-40 -6 -463 -103 -500 -114 -5 -1 42 -2 105 -2 132 0
194 -15 304 -72 86 -45 189 -146 233 -227 36 -68 41 -85 333 -1020 117 -374
215 -685 217 -692 3 -6 -10 -14 -29 -18 -18 -4 -168 -38 -333 -75 -1365 -311
-1327 -303 -1410 -303 -212 1 -412 118 -519 306 -21 37 -40 66 -42 64 -10 -9
143 -471 177 -537 76 -148 194 -262 344 -335 113 -54 183 -69 330 -70 128 0
135 1 485 83 195 46 679 157 1075 248 396 91 721 166 722 167 1 2 -56 189
-127 417 -588 1898 -547 1778 -645 1902 -93 119 -258 226 -404 263 -75 19
-245 27 -316 15z"/>
<path d="M2255 3000 c-93 -23 -174 -80 -223 -157 -21 -34 -77 -199 -191 -568
-88 -285 -159 -520 -158 -520 1 -1 243 -57 537 -124 595 -137 595 -137 711
-85 61 27 143 104 172 160 13 25 66 196 277 887 28 93 50 170 48 171 -2 1
-239 57 -528 124 -507 118 -575 130 -645 112z"/>
<path d="M4735 2976 c-390 -90 -900 -210 -904 -212 -7 -5 301 -1000 325 -1051
51 -106 168 -187 289 -199 53 -5 121 8 585 115 289 67 530 123 536 125 8 3
-13 85 -62 243 -41 131 -111 357 -155 503 -85 276 -103 321 -150 381 -57 73
-181 130 -278 128 -25 0 -109 -15 -186 -33z"/>
</g>
</svg>
